<?xml version="1.0" encoding="utf-8"?>
<svg version="1.1" xmlns="http://www.w3.org/2000/svg" xmlns:xlink="http://www.w3.org/1999/xlink" width="100%" height="100%" viewBox="0 0 400 400">
  <defs>
    <style type="text/css">
      @font-face {
        font-family: Plat Nomor;
        src: url('../fonts/PlatNomor.woff');
      }
    </style>
  </defs>
  <rect width="100%" height="100%" fill="white"/>
  <svg x="50" y="1800" viewport="0 0 100 150" transform="scale(0.2 0.2)">
  <svg x="160" y="1800" viewport="0 0 100 150" transform="scale(0.2 0.2)">
  <svg x="270" y="1800" viewport="0 0 100 150" transform="scale(0.2 0.2)">
  <svg x="380" y="1800" viewport="0 0 100 150" transform="scale(0.2 0.2)">
  <svg x="490" y="1800" viewport="0 0 100 150" transform="scale(0.2 0.2)">
  <text x="150" y="385" font-family="Arial" font-size="20">20mA</text>
<line x1="10.000000" y1="330.000000" x2="30.000000" y2="330.000000" stroke="black" stroke-width="1pt"/>
<line x1="30.000000" y1="330.000000" x2="50.000000" y2="330.000000" stroke="black" stroke-width="3pt"/>
<text x="80.000000" y="340.000000" font-family="Plat Nomor" font-size="30" text-anchor="middle" alignement-baseline="central">0</text>
<line x1="10.027415" y1="325.811329" x2="30.025702" y2="326.073121" stroke="black" stroke-width="1pt"/>
<line x1="10.109656" y1="321.623377" x2="30.102803" y2="322.146916" stroke="black" stroke-width="1pt"/>
<line x1="10.246708" y1="317.436859" x2="30.231289" y2="318.222055" stroke="black" stroke-width="1pt"/>
<line x1="10.438549" y1="313.252494" x2="30.411140" y2="314.299213" stroke="black" stroke-width="1pt"/>
<line x1="10.685145" y1="309.070999" x2="40.620912" y2="311.033093" stroke="black" stroke-width="1pt"/>
<line x1="10.986453" y1="304.893089" x2="30.924800" y2="306.462271" stroke="black" stroke-width="1pt"/>
<line x1="11.342423" y1="300.719482" x2="31.258522" y2="302.549514" stroke="black" stroke-width="1pt"/>
<line x1="11.752993" y1="296.550892" x2="31.643431" y2="298.641461" stroke="black" stroke-width="1pt"/>
<line x1="12.218094" y1="292.388033" x2="32.079463" y2="294.738781" stroke="black" stroke-width="1pt"/>
<line x1="12.737644" y1="288.231618" x2="42.480990" y2="292.147404" stroke="black" stroke-width="1pt"/>
<line x1="13.311556" y1="284.082361" x2="33.104584" y2="286.952213" stroke="black" stroke-width="1pt"/>
<line x1="13.939731" y1="279.940971" x2="33.693498" y2="283.069660" stroke="black" stroke-width="1pt"/>
<line x1="14.622061" y1="275.808159" x2="34.333182" y2="279.195149" stroke="black" stroke-width="1pt"/>
<line x1="15.358430" y1="271.684632" x2="35.023528" y2="275.329342" stroke="black" stroke-width="1pt"/>
<line x1="16.148710" y1="267.571097" x2="45.572269" y2="273.423807" stroke="black" stroke-width="1pt"/>
<line x1="16.992768" y1="263.468259" x2="36.555720" y2="267.626493" stroke="black" stroke-width="1pt"/>
<line x1="17.890457" y1="259.376821" x2="37.397304" y2="263.790769" stroke="black" stroke-width="1pt"/>
<line x1="18.841625" y1="255.297484" x2="38.289024" y2="259.966391" stroke="black" stroke-width="1pt"/>
<line x1="19.846109" y1="251.230946" x2="39.230727" y2="256.154012" stroke="black" stroke-width="1pt"/>
<line x1="20.903736" y1="247.177906" x2="49.881510" y2="254.942477" stroke="black" stroke-width="1pt"/>
<line x1="22.014324" y1="243.139056" x2="41.263429" y2="248.567865" stroke="black" stroke-width="1pt"/>
<line x1="23.177685" y1="239.115090" x2="42.354080" y2="244.795397" stroke="black" stroke-width="1pt"/>
<line x1="24.393618" y1="235.106696" x2="43.494017" y2="241.037528" stroke="black" stroke-width="1pt"/>
<line x1="25.661915" y1="231.114562" x2="44.683045" y2="237.294902" stroke="black" stroke-width="1pt"/>
<line x1="26.982359" y1="227.139371" x2="55.390262" y2="236.782555" stroke="black" stroke-width="1pt"/>
<line x1="28.354723" y1="223.181805" x2="47.207553" y2="229.857942" stroke="black" stroke-width="1pt"/>
<line x1="29.778773" y1="219.242542" x2="48.542599" y2="226.164883" stroke="black" stroke-width="1pt"/>
<line x1="31.254264" y1="215.322256" x2="49.925872" y2="222.489615" stroke="black" stroke-width="1pt"/>
<line x1="32.780943" y1="211.421620" x2="51.357134" y2="218.832769" stroke="black" stroke-width="1pt"/>
<line x1="34.358550" y1="207.541302" x2="52.836140" y2="215.194970" stroke="black" stroke-width="1pt"/>
<line x1="52.836140" y1="215.194970" x2="71.313731" y2="222.848639" stroke="black" stroke-width="3pt"/>
<text x="99.030117" y="244.329142" font-family="Plat Nomor" font-size="30" text-anchor="middle" alignement-baseline="central">600</text>
<line x1="35.986813" y1="203.681966" x2="54.362637" y2="211.576843" stroke="black" stroke-width="1pt"/>
<line x1="37.665454" y1="199.844274" x2="55.936363" y2="207.979007" stroke="black" stroke-width="1pt"/>
<line x1="39.394184" y1="196.028884" x2="57.557048" y2="204.402079" stroke="black" stroke-width="1pt"/>
<line x1="41.172709" y1="192.236449" x2="59.224415" y2="200.846671" stroke="black" stroke-width="1pt"/>
<line x1="43.000723" y1="188.467619" x2="69.906905" y2="201.736280" stroke="black" stroke-width="1pt"/>
<line x1="44.877912" y1="184.723040" x2="62.698043" y2="193.802850" stroke="black" stroke-width="1pt"/>
<line x1="46.803956" y1="181.003353" x2="64.503709" y2="190.315644" stroke="black" stroke-width="1pt"/>
<line x1="48.778524" y1="177.309197" x2="66.354866" y2="186.852372" stroke="black" stroke-width="1pt"/>
<line x1="50.801278" y1="173.641203" x2="68.251198" y2="183.413628" stroke="black" stroke-width="1pt"/>
<line x1="52.871871" y1="170.000000" x2="78.852633" y2="185.000000" stroke="black" stroke-width="1pt"/>
<line x1="54.989948" y1="166.386212" x2="72.178077" y2="176.612074" stroke="black" stroke-width="1pt"/>
<line x1="57.155147" y1="162.800459" x2="74.207951" y2="173.250431" stroke="black" stroke-width="1pt"/>
<line x1="59.367097" y1="159.243355" x2="76.281653" y2="169.915645" stroke="black" stroke-width="1pt"/>
<line x1="61.625418" y1="155.715509" x2="78.398830" y2="166.608289" stroke="black" stroke-width="1pt"/>
<line x1="63.929724" y1="152.217525" x2="88.873812" y2="168.884632" stroke="black" stroke-width="1pt"/>
<line x1="66.279620" y1="148.750004" x2="82.762143" y2="160.078129" stroke="black" stroke-width="1pt"/>
<line x1="68.674702" y1="145.313539" x2="85.007533" y2="156.856443" stroke="black" stroke-width="1pt"/>
<line x1="71.114562" y1="141.908719" x2="87.294902" y2="153.664424" stroke="black" stroke-width="1pt"/>
<line x1="73.598780" y1="138.536128" x2="89.623856" y2="150.502620" stroke="black" stroke-width="1pt"/>
<line x1="76.126931" y1="135.196343" x2="99.927531" y2="153.459186" stroke="black" stroke-width="1pt"/>
<line x1="78.698582" y1="131.889936" x2="94.404921" y2="144.271815" stroke="black" stroke-width="1pt"/>
<line x1="81.313292" y1="128.617475" x2="96.856212" y2="141.203883" stroke="black" stroke-width="1pt"/>
<line x1="83.970614" y1="125.379519" x2="99.347450" y2="138.168299" stroke="black" stroke-width="1pt"/>
<line x1="86.670091" y1="122.176625" x2="101.878210" y2="135.165586" stroke="black" stroke-width="1pt"/>
<line x1="89.411262" y1="119.009339" x2="111.966456" y2="138.789714" stroke="black" stroke-width="1pt"/>
<line x1="92.193656" y1="115.878206" x2="107.056552" y2="129.260818" stroke="black" stroke-width="1pt"/>
<line x1="95.016797" y1="112.783761" x2="109.703247" y2="126.359776" stroke="black" stroke-width="1pt"/>
<line x1="97.880201" y1="109.726536" x2="112.387689" y2="123.493627" stroke="black" stroke-width="1pt"/>
<line x1="100.783378" y1="106.707053" x2="115.109417" y2="120.662862" stroke="black" stroke-width="1pt"/>
<line x1="103.725830" y1="103.725830" x2="117.867966" y2="117.867966" stroke="black" stroke-width="1pt"/>
<line x1="117.867966" y1="117.867966" x2="132.010101" y2="132.010101" stroke="black" stroke-width="3pt"/>
<text x="153.223305" y="163.223305" font-family="Plat Nomor" font-size="30" text-anchor="middle" alignement-baseline="central">1200</text>
<line x1="106.707053" y1="100.783378" x2="120.662862" y2="115.109417" stroke="black" stroke-width="1pt"/>
<line x1="109.726536" y1="97.880201" x2="123.493627" y2="112.387689" stroke="black" stroke-width="1pt"/>
<line x1="112.783761" y1="95.016797" x2="126.359776" y2="109.703247" stroke="black" stroke-width="1pt"/>
<line x1="115.878206" y1="92.193656" x2="129.260818" y2="107.056552" stroke="black" stroke-width="1pt"/>
<line x1="119.009339" y1="89.411262" x2="138.789714" y2="111.966456" stroke="black" stroke-width="1pt"/>
<line x1="122.176625" y1="86.670091" x2="135.165586" y2="101.878210" stroke="black" stroke-width="1pt"/>
<line x1="125.379519" y1="83.970614" x2="138.168299" y2="99.347450" stroke="black" stroke-width="1pt"/>
<line x1="128.617475" y1="81.313292" x2="141.203883" y2="96.856212" stroke="black" stroke-width="1pt"/>
<line x1="131.889936" y1="78.698582" x2="144.271815" y2="94.404921" stroke="black" stroke-width="1pt"/>
<line x1="135.196343" y1="76.126931" x2="153.459186" y2="99.927531" stroke="black" stroke-width="1pt"/>
<line x1="138.536128" y1="73.598780" x2="150.502620" y2="89.623856" stroke="black" stroke-width="1pt"/>
<line x1="141.908719" y1="71.114562" x2="153.664424" y2="87.294902" stroke="black" stroke-width="1pt"/>
<line x1="145.313539" y1="68.674702" x2="156.856443" y2="85.007533" stroke="black" stroke-width="1pt"/>
<line x1="148.750004" y1="66.279620" x2="160.078129" y2="82.762143" stroke="black" stroke-width="1pt"/>
<line x1="152.217525" y1="63.929724" x2="168.884632" y2="88.873812" stroke="black" stroke-width="1pt"/>
<line x1="155.715509" y1="61.625418" x2="166.608289" y2="78.398830" stroke="black" stroke-width="1pt"/>
<line x1="159.243355" y1="59.367097" x2="169.915645" y2="76.281653" stroke="black" stroke-width="1pt"/>
<line x1="162.800459" y1="57.155147" x2="173.250431" y2="74.207951" stroke="black" stroke-width="1pt"/>
<line x1="166.386212" y1="54.989948" x2="176.612074" y2="72.178077" stroke="black" stroke-width="1pt"/>
<line x1="170.000000" y1="52.871871" x2="185.000000" y2="78.852633" stroke="black" stroke-width="1pt"/>
<line x1="173.641203" y1="50.801278" x2="183.413628" y2="68.251198" stroke="black" stroke-width="1pt"/>
<line x1="177.309197" y1="48.778524" x2="186.852372" y2="66.354866" stroke="black" stroke-width="1pt"/>
<line x1="181.003353" y1="46.803956" x2="190.315644" y2="64.503709" stroke="black" stroke-width="1pt"/>
<line x1="184.723040" y1="44.877912" x2="193.802850" y2="62.698043" stroke="black" stroke-width="1pt"/>
<line x1="188.467619" y1="43.000723" x2="201.736280" y2="69.906905" stroke="black" stroke-width="1pt"/>
<line x1="192.236449" y1="41.172709" x2="200.846671" y2="59.224415" stroke="black" stroke-width="1pt"/>
<line x1="196.028884" y1="39.394184" x2="204.402079" y2="57.557048" stroke="black" stroke-width="1pt"/>
<line x1="199.844274" y1="37.665454" x2="207.979007" y2="55.936363" stroke="black" stroke-width="1pt"/>
<line x1="203.681966" y1="35.986813" x2="211.576843" y2="54.362637" stroke="black" stroke-width="1pt"/>
<line x1="207.541302" y1="34.358550" x2="215.194970" y2="52.836140" stroke="black" stroke-width="1pt"/>
<line x1="215.194970" y1="52.836140" x2="222.848639" y2="71.313731" stroke="black" stroke-width="3pt"/>
<text x="234.329142" y="109.030117" font-family="Plat Nomor" font-size="30" text-anchor="middle" alignement-baseline="central">1800</text>
<line x1="211.421620" y1="32.780943" x2="218.832769" y2="51.357134" stroke="black" stroke-width="1pt"/>
<line x1="215.322256" y1="31.254264" x2="222.489615" y2="49.925872" stroke="black" stroke-width="1pt"/>
<line x1="219.242542" y1="29.778773" x2="226.164883" y2="48.542599" stroke="black" stroke-width="1pt"/>
<line x1="223.181805" y1="28.354723" x2="229.857942" y2="47.207553" stroke="black" stroke-width="1pt"/>
<line x1="227.139371" y1="26.982359" x2="236.782555" y2="55.390262" stroke="black" stroke-width="1pt"/>
<line x1="231.114562" y1="25.661915" x2="237.294902" y2="44.683045" stroke="black" stroke-width="1pt"/>
<line x1="235.106696" y1="24.393618" x2="241.037528" y2="43.494017" stroke="black" stroke-width="1pt"/>
<line x1="239.115090" y1="23.177685" x2="244.795397" y2="42.354080" stroke="black" stroke-width="1pt"/>
<line x1="243.139056" y1="22.014324" x2="248.567865" y2="41.263429" stroke="black" stroke-width="1pt"/>
<line x1="247.177906" y1="20.903736" x2="254.942477" y2="49.881510" stroke="black" stroke-width="1pt"/>
<line x1="251.230946" y1="19.846109" x2="256.154012" y2="39.230727" stroke="black" stroke-width="1pt"/>
<line x1="255.297484" y1="18.841625" x2="259.966391" y2="38.289024" stroke="black" stroke-width="1pt"/>
<line x1="259.376821" y1="17.890457" x2="263.790769" y2="37.397304" stroke="black" stroke-width="1pt"/>
<line x1="263.468259" y1="16.992768" x2="267.626493" y2="36.555720" stroke="black" stroke-width="1pt"/>
<line x1="267.571097" y1="16.148710" x2="273.423807" y2="45.572269" stroke="black" stroke-width="1pt"/>
<line x1="271.684632" y1="15.358430" x2="275.329342" y2="35.023528" stroke="black" stroke-width="1pt"/>
<line x1="275.808159" y1="14.622061" x2="279.195149" y2="34.333182" stroke="black" stroke-width="1pt"/>
<line x1="279.940971" y1="13.939731" x2="283.069660" y2="33.693498" stroke="black" stroke-width="1pt"/>
<line x1="284.082361" y1="13.311556" x2="286.952213" y2="33.104584" stroke="black" stroke-width="1pt"/>
<line x1="288.231618" y1="12.737644" x2="292.147404" y2="42.480990" stroke="black" stroke-width="1pt"/>
<line x1="292.388033" y1="12.218094" x2="294.738781" y2="32.079463" stroke="black" stroke-width="1pt"/>
<line x1="296.550892" y1="11.752993" x2="298.641461" y2="31.643431" stroke="black" stroke-width="1pt"/>
<line x1="300.719482" y1="11.342423" x2="302.549514" y2="31.258522" stroke="black" stroke-width="1pt"/>
<line x1="304.893089" y1="10.986453" x2="306.462271" y2="30.924800" stroke="black" stroke-width="1pt"/>
<line x1="309.070999" y1="10.685145" x2="311.033093" y2="40.620912" stroke="black" stroke-width="1pt"/>
<line x1="313.252494" y1="10.438549" x2="314.299213" y2="30.411140" stroke="black" stroke-width="1pt"/>
<line x1="317.436859" y1="10.246708" x2="318.222055" y2="30.231289" stroke="black" stroke-width="1pt"/>
<line x1="321.623377" y1="10.109656" x2="322.146916" y2="30.102803" stroke="black" stroke-width="1pt"/>
<line x1="325.811329" y1="10.027415" x2="326.073121" y2="30.025702" stroke="black" stroke-width="1pt"/>
<line x1="330.000000" y1="10.000000" x2="330.000000" y2="30.000000" stroke="black" stroke-width="1pt"/>
<line x1="330.000000" y1="30.000000" x2="330.000000" y2="50.000000" stroke="black" stroke-width="3pt"/>
<text x="330.000000" y="90.000000" font-family="Plat Nomor" font-size="30" text-anchor="middle" alignement-baseline="central">2400</text>
<circle cx="330.000000" cy="330.000000" r="30" fill="grey"/>
<path d="M207.541302 34.358550 L 193.631693 18.545855 L 206.195617 13.341707 Z" fill="#FF4000"/>
<text font-family="Plat Nomor" font-weight="bold" font-size="50" x="20" y="70">RPM</text>
</svg>
