<?xml version="1.0" encoding="utf-8"?>
<svg version="1.1" xmlns="http://www.w3.org/2000/svg" xmlns:xlink="http://www.w3.org/1999/xlink" width="100%" height="100%" viewBox="0 0 400 400">
  <defs>
    <style type="text/css">
      @font-face {
        font-family: Plat Nomor;
        src: url('../fonts/PlatNomor.woff');
      }
    </style>
  </defs>
  <rect width="100%" height="100%" fill="white"/>
  <svg x="50" y="1800" viewport="0 0 100 150" transform="scale(0.2 0.2)">
    <rect width="100%" height="100%" fill="white"/>
    <line x1="5"    y1="67.5" x2="95"   y2="67.5" stroke="black" stroke-width="4pt"/>
    <line x1="5"    y1="82.5" x2="30"   y2="82.5" stroke="black" stroke-width="4pt"/>
    <line x1="37.5" y1="82.5" x2="62.5" y2="82.5" stroke="black" stroke-width="4pt"/>
    <line x1="70"   y1="82.5" x2="95"   y2="82.5" stroke="black" stroke-width="4pt"/>
  </svg>
  <svg x="160" y="1800" viewport="0 0 100 150" transform="scale(0.2 0.2)">
    <rect width="100%" height="100%" fill="white"/>
    <line x1="50" y1="25" x2="50" y2="125" stroke="black" stroke-width="8pt"/>
    <path d="M80 30 l -60 15 l 60 15 l -60 15 l 60 15 l -60 15 l 60 15" stroke="black" stroke-width="4pt" fill="transparent"/>
    <circle cx="80" cy="30"  r="5" fill="black"/>
    <circle cx="80" cy="120" r="5" fill="black"/>
  </svg>
  <svg x="270" y="1800" viewport="0 0 100 150" transform="scale(0.2 0.2)">
    <rect width="100%" height="100%" fill="white"/>
    <text x="50" y="92" text-anchor="middle" font-family="Arial" font-size="50">2.5</text>
    <circle cx="50" cy="75" r="45" stroke="black" stroke-width="4pt" fill="transparent"/>
  </svg>
  <svg x="380" y="1800" viewport="0 0 100 150" transform="scale(0.2 0.2)">
    <rect width="100%" height="100%" fill="white"/>
    <line x1="5"  y1="105" x2="95" y2="105" stroke="black" stroke-width="4pt" stroke-linecap="round"/>
    <line x1="5"  y1="105" x2="50" y2="35"  stroke="black" stroke-width="4pt" stroke-linecap="round"/>
    <text x="70"  y="92" text-anchor="middle" font-family="Arial" font-size="30">60°</text>
  </svg>
  <svg x="490" y="1800" viewport="0 0 100 150" transform="scale(0.2 0.2)">
    <rect width="100%" height="100%" fill="white"/>
    <line x1="50" y1="30"   x2="39" y2="64.5" stroke="black" stroke-width="4pt" stroke-linecap="round"/>
    <line x1="50" y1="30"   x2="61" y2="64.5" stroke="black" stroke-width="4pt" stroke-linecap="round"/>
    <line x1="5"  y1="64.5" x2="39" y2="64.5" stroke="black" stroke-width="4pt" stroke-linecap="round"/>
    <line x1="61" y1="64.5" x2="95" y2="64.5" stroke="black" stroke-width="4pt" stroke-linecap="round"/>
    <line x1="21" y1="120"  x2="32" y2="85.5" stroke="black" stroke-width="4pt" stroke-linecap="round"/>
    <line x1="79" y1="120"  x2="68" y2="85.5" stroke="black" stroke-width="4pt" stroke-linecap="round"/>
    <line x1="5"  y1="64.5" x2="32" y2="85.5" stroke="black" stroke-width="4pt" stroke-linecap="round"/>
    <line x1="95" y1="64.5" x2="68" y2="85.5" stroke="black" stroke-width="4pt" stroke-linecap="round"/>
    <line x1="21" y1="120"  x2="50" y2="99"   stroke="black" stroke-width="4pt" stroke-linecap="round"/>
    <line x1="79" y1="120"  x2="50" y2="99"   stroke="black" stroke-width="4pt" stroke-linecap="round"/>
    <text x="50" y="92" text-anchor="middle" font-family="Arial" font-size="35">2</text>
  </svg>
  <text x="150" y="385" font-family="Arial" font-size="20">20mA</text>
<line x1="10.000000" y1="330.000000" x2="30.000000" y2="330.000000" stroke="black" stroke-width="1pt"/>
<line x1="30.000000" y1="330.000000" x2="50.000000" y2="330.000000" stroke="black" stroke-width="3pt"/>
<text x="80.000000" y="340.000000" font-family="Plat Nomor" font-size="30" text-anchor="middle" alignement-baseline="central">0</text>
<line x1="10.171332" y1="319.529893" x2="30.160624" y2="320.184275" stroke="black" stroke-width="1pt"/>
<line x1="10.685145" y1="309.070999" x2="40.620912" y2="311.033093" stroke="black" stroke-width="1pt"/>
<line x1="11.540887" y1="298.634515" x2="31.444582" y2="300.594858" stroke="black" stroke-width="1pt"/>
<line x1="12.737644" y1="288.231618" x2="42.480990" y2="292.147404" stroke="black" stroke-width="1pt"/>
<line x1="14.274134" y1="277.873449" x2="34.007000" y2="281.131358" stroke="black" stroke-width="1pt"/>
<line x1="16.148710" y1="267.571097" x2="45.572269" y2="273.423807" stroke="black" stroke-width="1pt"/>
<line x1="18.359367" y1="257.335596" x2="37.836906" y2="261.877121" stroke="black" stroke-width="1pt"/>
<line x1="20.903736" y1="247.177906" x2="49.881510" y2="254.942477" stroke="black" stroke-width="1pt"/>
<line x1="23.779093" y1="237.108903" x2="42.917899" y2="242.914597" stroke="black" stroke-width="1pt"/>
<line x1="26.982359" y1="227.139371" x2="55.390262" y2="236.782555" stroke="black" stroke-width="1pt"/>
<line x1="30.510103" y1="217.279985" x2="49.228222" y2="224.324986" stroke="black" stroke-width="1pt"/>
<line x1="34.358550" y1="207.541302" x2="52.836140" y2="215.194970" stroke="black" stroke-width="1pt"/>
<line x1="52.836140" y1="215.194970" x2="71.313731" y2="222.848639" stroke="black" stroke-width="3pt"/>
<text x="99.030117" y="244.329142" font-family="Plat Nomor" font-size="30" text-anchor="middle" alignement-baseline="central">600</text>
<line x1="38.523576" y1="197.933750" x2="56.740853" y2="206.187891" stroke="black" stroke-width="1pt"/>
<line x1="43.000723" y1="188.467619" x2="69.906905" y2="201.736280" stroke="black" stroke-width="1pt"/>
<line x1="47.785195" y1="179.153044" x2="65.423621" y2="188.580979" stroke="black" stroke-width="1pt"/>
<line x1="52.871871" y1="170.000000" x2="78.852633" y2="185.000000" stroke="black" stroke-width="1pt"/>
<line x1="58.255302" y1="161.018288" x2="75.239346" y2="171.579645" stroke="black" stroke-width="1pt"/>
<line x1="63.929724" y1="152.217525" x2="88.873812" y2="168.884632" stroke="black" stroke-width="1pt"/>
<line x1="69.889061" y1="143.607137" x2="86.145995" y2="155.256691" stroke="black" stroke-width="1pt"/>
<line x1="76.126931" y1="135.196343" x2="99.927531" y2="153.459186" stroke="black" stroke-width="1pt"/>
<line x1="82.636655" y1="126.994149" x2="98.096864" y2="139.682015" stroke="black" stroke-width="1pt"/>
<line x1="89.411262" y1="119.009339" x2="111.966456" y2="138.789714" stroke="black" stroke-width="1pt"/>
<line x1="96.443497" y1="111.250463" x2="111.040778" y2="124.922309" stroke="black" stroke-width="1pt"/>
<line x1="103.725830" y1="103.725830" x2="117.867966" y2="117.867966" stroke="black" stroke-width="1pt"/>
<line x1="117.867966" y1="117.867966" x2="132.010101" y2="132.010101" stroke="black" stroke-width="3pt"/>
<text x="153.223305" y="163.223305" font-family="Plat Nomor" font-size="30" text-anchor="middle" alignement-baseline="central">1200</text>
<line x1="111.250463" y1="96.443497" x2="124.922309" y2="111.040778" stroke="black" stroke-width="1pt"/>
<line x1="119.009339" y1="89.411262" x2="138.789714" y2="111.966456" stroke="black" stroke-width="1pt"/>
<line x1="126.994149" y1="82.636655" x2="139.682015" y2="98.096864" stroke="black" stroke-width="1pt"/>
<line x1="135.196343" y1="76.126931" x2="153.459186" y2="99.927531" stroke="black" stroke-width="1pt"/>
<line x1="143.607137" y1="69.889061" x2="155.256691" y2="86.145995" stroke="black" stroke-width="1pt"/>
<line x1="152.217525" y1="63.929724" x2="168.884632" y2="88.873812" stroke="black" stroke-width="1pt"/>
<line x1="161.018288" y1="58.255302" x2="171.579645" y2="75.239346" stroke="black" stroke-width="1pt"/>
<line x1="170.000000" y1="52.871871" x2="185.000000" y2="78.852633" stroke="black" stroke-width="1pt"/>
<line x1="179.153044" y1="47.785195" x2="188.580979" y2="65.423621" stroke="black" stroke-width="1pt"/>
<line x1="188.467619" y1="43.000723" x2="201.736280" y2="69.906905" stroke="black" stroke-width="1pt"/>
<line x1="197.933750" y1="38.523576" x2="206.187891" y2="56.740853" stroke="black" stroke-width="1pt"/>
<line x1="207.541302" y1="34.358550" x2="215.194970" y2="52.836140" stroke="black" stroke-width="1pt"/>
<line x1="215.194970" y1="52.836140" x2="222.848639" y2="71.313731" stroke="black" stroke-width="3pt"/>
<text x="234.329142" y="109.030117" font-family="Plat Nomor" font-size="30" text-anchor="middle" alignement-baseline="central">1800</text>
<line x1="217.279985" y1="30.510103" x2="224.324986" y2="49.228222" stroke="black" stroke-width="1pt"/>
<line x1="227.139371" y1="26.982359" x2="236.782555" y2="55.390262" stroke="black" stroke-width="1pt"/>
<line x1="237.108903" y1="23.779093" x2="242.914597" y2="42.917899" stroke="black" stroke-width="1pt"/>
<line x1="247.177906" y1="20.903736" x2="254.942477" y2="49.881510" stroke="black" stroke-width="1pt"/>
<line x1="257.335596" y1="18.359367" x2="261.877121" y2="37.836906" stroke="black" stroke-width="1pt"/>
<line x1="267.571097" y1="16.148710" x2="273.423807" y2="45.572269" stroke="black" stroke-width="1pt"/>
<line x1="277.873449" y1="14.274134" x2="281.131358" y2="34.007000" stroke="black" stroke-width="1pt"/>
<line x1="288.231618" y1="12.737644" x2="292.147404" y2="42.480990" stroke="black" stroke-width="1pt"/>
<line x1="298.634515" y1="11.540887" x2="300.594858" y2="31.444582" stroke="black" stroke-width="1pt"/>
<line x1="309.070999" y1="10.685145" x2="311.033093" y2="40.620912" stroke="black" stroke-width="1pt"/>
<line x1="319.529893" y1="10.171332" x2="320.184275" y2="30.160624" stroke="black" stroke-width="1pt"/>
<line x1="330.000000" y1="10.000000" x2="330.000000" y2="30.000000" stroke="black" stroke-width="1pt"/>
<line x1="330.000000" y1="30.000000" x2="330.000000" y2="50.000000" stroke="black" stroke-width="3pt"/>
<text x="330.000000" y="90.000000" font-family="Plat Nomor" font-size="30" text-anchor="middle" alignement-baseline="central">2400</text>
<circle cx="330.000000" cy="330.000000" r="30" fill="grey"/>
<path d="M207.541302 34.358550 L 193.631693 18.545855 L 206.195617 13.341707 Z" fill="#FF4000"/>
<text font-family="Plat Nomor" font-weight="bold" font-size="50" x="20" y="70">RPM</text>
</svg>
